<svg width="35" height="36" viewBox="0 0 35 36" fill="none" xmlns="http://www.w3.org/2000/svg">
<path d="M26.6173 35.3333C24.9893 33.6963 23.3523 32.0593 21.7243 30.4223C21.5615 30.2595 21.3806 30.1057 21.1636 29.8977C23.1624 29.3822 24.9169 28.5682 26.5178 27.4286C28.1277 26.2891 29.4662 24.8872 30.5425 23.2864C31.9081 24.6521 33.2738 26.0087 34.6576 27.3925C34.5581 27.4377 34.4315 27.501 34.3049 27.5372C32.8307 27.9894 31.3564 28.4416 29.8732 28.8848C29.023 29.138 28.4804 29.6716 28.2271 30.5218C27.793 31.996 27.3318 33.4702 26.8795 34.9535C26.8434 35.0801 26.7891 35.2067 26.7439 35.3333C26.7077 35.3333 26.6625 35.3333 26.6173 35.3333Z" fill="white"/>
<path d="M-0.000488281 27.2751C1.25666 26.027 2.50477 24.7788 3.76192 23.5307C3.85236 23.4403 3.91567 23.3137 4.02421 23.1509C6.3938 26.5967 9.48693 28.8307 13.4302 29.8798C13.4574 29.925 13.4935 29.9612 13.5207 30.0064C13.4121 30.0607 13.2765 30.1059 13.1951 30.1873C11.5309 31.8424 9.87584 33.4975 8.22074 35.1616C8.16647 35.2159 8.11221 35.2792 8.06699 35.3335C8.02177 35.3335 7.97654 35.3335 7.93132 35.3335C7.8861 35.2069 7.83184 35.0802 7.79566 34.9536C7.34345 33.4704 6.89123 31.9871 6.43902 30.4948C6.19483 29.6718 5.67026 29.1382 4.84723 28.903C4.46737 28.7945 4.09656 28.6769 3.7167 28.5593C2.47764 28.1795 1.24762 27.7906 0.00855597 27.4107C-0.000488281 27.3655 -0.000488281 27.3203 -0.000488281 27.2751Z" fill="white"/>
<path d="M17.336 28.3332C9.71168 28.3332 3.51637 22.1288 3.50732 14.5045C3.50732 6.8621 9.72073 0.648699 17.3541 0.666787C24.9965 0.684876 31.1647 6.88019 31.1647 14.5407C31.1556 22.1198 24.9332 28.3332 17.336 28.3332ZM17.3269 3.19918C11.1135 3.19918 6.00354 8.28205 6.03972 14.5226C6.06685 20.5913 10.7246 25.7465 17.3993 25.7827C23.5946 25.8098 28.6504 20.7269 28.6504 14.5135C28.6504 8.29109 23.5494 3.19918 17.3269 3.19918Z" fill="white"/>
<path d="M17.3271 3.19946C23.5496 3.19946 28.6415 8.28233 28.6415 14.5048C28.6415 20.7182 23.5858 25.8011 17.3905 25.7739C10.7158 25.7468 6.06705 20.5825 6.03087 14.5138C6.00374 8.28233 11.1137 3.19946 17.3271 3.19946ZM17.3724 23.7661C22.4552 23.7661 26.6066 19.5696 26.6066 14.4415C26.6066 9.40382 22.3829 5.22538 17.3091 5.24346C12.2081 5.25251 8.07487 9.39478 8.06583 14.5138C8.05678 19.6057 12.2352 23.7661 17.3724 23.7661Z" fill="white"/>
<path d="M15.7539 15.3096C17.4452 14.0615 19.0912 12.8224 20.7644 11.6105C20.9995 11.4386 21.3432 11.3301 21.6326 11.3391C22.0577 11.3482 22.3562 11.6467 22.4647 12.0627C22.5732 12.4878 22.4376 12.8495 22.1029 13.1209C21.696 13.4465 21.2799 13.7449 20.8639 14.0524C19.3806 15.1558 17.8974 16.2592 16.4141 17.3536C15.7629 17.8329 15.3107 17.7877 14.759 17.1998C14.0174 16.413 13.2758 15.6261 12.5341 14.8302C12.091 14.3509 12.0819 13.7268 12.507 13.3198C12.9411 12.9128 13.5561 12.9581 14.0083 13.4284C14.5781 14.0524 15.1479 14.6765 15.7539 15.3096Z" fill="white"/>
</svg>
