<svg width="31" height="36" viewBox="0 0 31 36" fill="none" xmlns="http://www.w3.org/2000/svg">
<path d="M0.266602 35.3334C0.275646 34.655 0.28469 33.9767 0.28469 33.3074C0.293734 31.779 1.20721 30.8564 2.72664 30.8564C10.2243 30.8564 17.713 30.8564 25.2107 30.8564C26.7211 30.8564 27.6346 31.7699 27.6436 33.2713C27.6436 33.9586 27.6346 34.646 27.6346 35.3334C18.5089 35.3334 9.38322 35.3334 0.266602 35.3334Z" fill="white"/>
<path d="M10.3408 8.92414C10.377 8.87892 10.4584 8.79752 10.5307 8.72516C12.8642 6.39174 15.2066 4.04928 17.5401 1.71586C18.2003 1.05562 18.8334 1.04658 19.5027 1.71586C20.8503 3.06345 22.1979 4.41105 23.5454 5.75864C24.1966 6.40983 24.1966 7.04293 23.5454 7.69412C21.1939 10.0456 18.8424 12.3971 16.4909 14.7486C16.4276 14.812 16.3733 14.8843 16.3372 14.9205C14.3293 12.9127 12.3396 10.9229 10.3408 8.92414Z" fill="white"/>
<path d="M21.2588 23.0965C24.4424 22.1921 26.4231 20.2295 26.3598 16.8107C26.3055 13.8623 24.6052 11.9901 21.8105 11.0495C22.8144 10.0637 23.8093 9.08692 24.8494 8.08301C25.5367 8.4086 26.2241 8.8789 26.8572 9.4306C32.4556 14.3055 30.9995 23.3497 24.162 26.2258C23.8635 26.3524 23.7188 26.3072 23.5289 26.054C22.8506 25.1495 22.1542 24.2632 21.4668 23.3769C21.3945 23.2864 21.3402 23.205 21.2588 23.0965Z" fill="white"/>
<path d="M24.8209 29.6808C20.968 29.6808 17.1966 29.6808 13.3799 29.6808C13.4251 29.5542 13.4522 29.4547 13.4884 29.3552C14.1577 27.7182 14.8179 26.0812 15.4962 24.4442C16.3554 22.3459 18.9059 21.9932 20.3078 23.7749C21.6825 25.5204 23.0301 27.2841 24.3868 29.0386C24.5315 29.2286 24.649 29.4366 24.8209 29.6808ZM18.0558 28.3061C19.1501 28.3061 20.0365 27.4288 20.0365 26.3344C20.0365 25.2401 19.1592 24.3537 18.0648 24.3447C16.9524 24.3356 16.0479 25.2401 16.057 26.3344C16.0751 27.4197 16.9614 28.3061 18.0558 28.3061Z" fill="white"/>
<path d="M7.22168 10.8051C7.72816 10.2806 8.26177 9.73792 8.7592 9.23145C11.165 11.6463 13.5979 14.0701 16.0127 16.494C15.5153 16.9914 14.9726 17.5341 14.448 18.0496C12.0423 15.6257 9.61841 13.2019 7.22168 10.8051Z" fill="white"/>
<path d="M14.2842 24.3716C13.9676 25.1494 13.6782 25.8729 13.3616 26.5965C13.3255 26.6688 13.1446 26.714 13.027 26.714C11.0192 26.7231 9.01135 26.7231 7.00352 26.7231C5.94534 26.7231 4.88716 26.7231 3.82898 26.7231C3.71141 26.7231 3.58479 26.7231 3.45817 26.7231C3.45817 26.2166 3.4039 25.7282 3.46721 25.2579C3.53957 24.7243 4.05509 24.3806 4.6701 24.3806C6.31616 24.3806 7.96221 24.3806 9.60827 24.3806C11.0282 24.3806 12.4482 24.3806 13.8681 24.3806C13.9857 24.3716 14.1123 24.3716 14.2842 24.3716Z" fill="white"/>
<path d="M21.0771 1.59822C21.3575 1.32689 21.6379 1.05556 21.9273 0.784232C22.0901 0.630479 22.2439 0.639524 22.3976 0.793276C23.094 1.48064 23.7904 2.168 24.4597 2.8825C24.5321 2.9639 24.5411 3.22618 24.4687 3.31663C24.2155 3.63318 23.9261 3.91355 23.6548 4.19392C22.7865 3.30758 21.9544 2.47551 21.0771 1.59822Z" fill="white"/>
<path d="M18.0565 28.3059C16.9621 28.3059 16.0667 27.4286 16.0577 26.3343C16.0486 25.2399 16.9531 24.3355 18.0655 24.3445C19.1599 24.3536 20.0372 25.2309 20.0372 26.3343C20.0372 27.4196 19.1599 28.3059 18.0565 28.3059ZM18.0384 27.1483C18.5087 27.1573 18.8885 26.7865 18.8885 26.3252C18.8885 25.873 18.5268 25.5113 18.0746 25.5022C17.6043 25.4932 17.2244 25.864 17.2244 26.3252C17.2244 26.7775 17.5862 27.1392 18.0384 27.1483Z" fill="white"/>
<path d="M18.0396 27.1482C17.5874 27.1391 17.2256 26.7774 17.2256 26.3251C17.2256 25.8639 17.6054 25.4931 18.0757 25.5021C18.528 25.5112 18.8897 25.8729 18.8897 26.3251C18.8897 26.7864 18.5099 27.1572 18.0396 27.1482Z" fill="white"/>
</svg>
