<svg width="19" height="21" viewBox="0 0 19 21" fill="none" xmlns="http://www.w3.org/2000/svg">
<g clip-path="url(#clip0_20_1329)">
<path d="M9.5075 20.372C7.39124 20.372 5.27439 20.3749 3.15813 20.3708C1.87997 20.3685 0.871593 19.5807 0.609863 18.3639C0.456853 17.6518 0.552341 16.9385 0.749069 16.2521C1.49457 13.6531 3.20127 12.1112 5.82086 11.6083C6.10042 11.5547 6.39149 11.5448 6.67795 11.5442C8.5578 11.5389 10.4376 11.5203 12.3169 11.5459C15.3265 11.5867 17.7712 13.6712 18.3488 16.6664C18.4811 17.354 18.5455 18.0469 18.2901 18.7299C17.9369 19.6727 17.0476 20.3277 16.0513 20.3668C16.0082 20.3685 15.965 20.3714 15.9225 20.3714C13.7843 20.3714 11.6462 20.3714 9.50808 20.372H9.5075ZM9.49485 18.9764C10.4704 18.9764 11.446 18.9764 12.421 18.9764C13.5686 18.9764 14.7162 18.9787 15.8638 18.9752C16.6099 18.9729 17.0959 18.4787 17.0752 17.7287C17.0666 17.4181 17.0355 17.1035 16.9694 16.8004C16.4729 14.5214 14.5902 12.962 12.2853 12.9392C10.4279 12.9212 8.56988 12.934 6.71247 12.9381C6.49791 12.9381 6.28277 12.9573 6.06994 12.9853C3.79951 13.2842 2.01112 15.297 1.91908 17.6046C1.88572 18.4455 2.43967 18.9968 3.23291 18.9863C5.31984 18.9589 7.40734 18.9769 9.49427 18.9769L9.49485 18.9764Z" fill="white"/>
<path d="M14.7861 5.71731C14.7861 8.66827 12.4122 11.072 9.49864 11.0697C6.58625 11.068 4.21056 8.65662 4.21804 5.70973C4.22551 2.76343 6.5828 0.378885 9.49518 0.373057C12.4116 0.36723 14.7861 2.76576 14.7867 5.71731H14.7861ZM9.50899 1.7687C7.35533 1.76404 5.60376 3.52739 5.59513 5.70682C5.5865 7.87983 7.33865 9.66708 9.48368 9.67407C11.6448 9.68106 13.405 7.90839 13.4085 5.7208C13.4119 3.54488 11.6632 1.77278 9.50899 1.76812V1.7687Z" fill="white"/>
</g>
<defs>
<clipPath id="clip0_20_1329">
<rect width="17.931" height="20" fill="white" transform="translate(0.534424 0.373047)"/>
</clipPath>
</defs>
</svg>
