<svg width="17" height="16" viewBox="0 0 17 16" fill="none" xmlns="http://www.w3.org/2000/svg">
<path d="M14.0986 14.3763C12.6272 15.8477 8.85916 14.4652 5.68236 11.2884C2.50556 8.11156 1.12303 4.34349 2.59438 2.87212L3.56316 1.90335C4.23196 1.23455 5.33398 1.25222 6.02459 1.94283L7.52514 3.44338C8.21575 4.13399 8.23342 5.23601 7.56462 5.90481L7.35654 6.11289C6.99545 6.47399 6.96012 7.0565 7.29564 7.4631C7.61928 7.85528 7.96818 8.24592 8.34649 8.62423C8.72479 9.00253 9.11543 9.35144 9.50761 9.67507C9.91421 10.0106 10.4967 9.97527 10.8578 9.61417L11.0659 9.40609C11.7347 8.73729 12.8367 8.75497 13.5273 9.44558L15.0279 10.9461C15.7185 11.6367 15.7362 12.7388 15.0674 13.4076L14.0986 14.3763Z" stroke="#0A8E5A" stroke-width="1.5"/>
<path d="M13.0178 5.93029C12.8341 5.48219 12.5604 5.06237 12.1965 4.69852C11.8532 4.35523 11.4601 4.09212 11.0404 3.9092" stroke="#0A8E5A" stroke-width="1.5" stroke-linecap="round"/>
<path d="M11.0405 1.34719C12.0453 1.71121 12.9881 2.296 13.7937 3.10157C14.6194 3.92736 15.2132 4.89732 15.575 5.93049" stroke="#0A8E5A" stroke-width="1.5" stroke-linecap="round"/>
</svg>
